<?xml version="1.0" standalone="no"?><!DOCTYPE svg PUBLIC "-//W3C//DTD SVG 1.1//EN" "http://www.w3.org/Graphics/SVG/1.1/DTD/svg11.dtd"><svg t="1575569204001" class="icon" viewBox="0 0 1024 1024" version="1.1" xmlns="http://www.w3.org/2000/svg" p-id="39943" width="64" height="64" xmlns:xlink="http://www.w3.org/1999/xlink"><defs><style type="text/css"></style></defs><path d="M512 0C279.13 0 90.353 189.862 90.353 424.177c0 117.097 47.224 223.111 123.482 299.911L512 1024l298.164-299.912a424.117 424.117 0 0 0 123.483-299.911C933.647 189.862 744.869 0 512 0z m0 612.593a187.934 187.934 0 0 1-187.453-188.537A187.874 187.874 0 0 1 512 235.64a187.934 187.934 0 0 1 187.452 188.537A187.874 187.874 0 0 1 512 612.653z" fill="#fae08c" p-id="39944" data-spm-anchor-id="a313x.7781069.0.i29" class="selected"></path></svg>