<?xml version="1.0" standalone="no"?><!DOCTYPE svg PUBLIC "-//W3C//DTD SVG 1.1//EN" "http://www.w3.org/Graphics/SVG/1.1/DTD/svg11.dtd"><svg t="1575838724781" class="icon" viewBox="0 0 1024 1024" version="1.1" xmlns="http://www.w3.org/2000/svg" p-id="16952" width="128" height="128" xmlns:xlink="http://www.w3.org/1999/xlink"><defs><style type="text/css"></style></defs><path d="M924.649248 822.509986 924.649248 516.181229c21.098527-12.180414 35.259038-34.95614 35.259038-61.081147L959.908286 377.019773c0-38.885636-31.564903-70.502727-70.50989-70.502727l-92.732008 0c2.031263-1.215688 4.050246-2.440585 6.051833-3.677762 42.710754-26.396183 71.222111-52.741201 79.844489-81.858356 8.915044-30.106692-5.238304-57.455573-38.946011-76.966952-38.893822-22.51376-86.874603-25.088398-141.296073-12.032034-38.808888 9.31004-79.630618 26.253944-121.081683 48.621371-22.441105 12.109806-43.670615 25.061792-63.065338 38.024012-4.710278 3.14769-9.074679 6.139837-13.083993 8.951883-6.860245-6.130627-13.867846-12.18553-21.047362-18.104333-60.102866-49.556673-120.3009-82.089623-178.51065-89.178065-47.313585-5.762237-91.119277 5.932106-128.96421 37.111223l-2.709715 2.62478c-1.222851 1.39272-2.399653 2.796696-3.529383 4.211928-38.202067 47.88766-20.659529 97.891518 27.161616 142.272307l-60.288085 0c-39.051411 0-70.50989 31.546483-70.50989 70.502727l0 78.08031c0 26.058492 14.186094 48.836265 35.259038 61.038168l0 306.371736c0 51.970652 42.047652 93.820805 94.055143 93.820805l634.591059 0C882.690624 916.329768 924.649248 874.39161 924.649248 822.509986zM603.601254 221.866087c38.149878-20.586874 75.376735-36.037774 109.707634-44.274366 43.72792-10.489912 79.850629-8.55177 106.71651 6.999414 16.350386 9.464559 19.618826 15.780405 17.451464 23.098068-4.270257 14.421454-26.194592 34.679847-59.513442 55.271838-14.854313 9.18008-30.887474 17.828041-46.931892 25.63996-9.611915 4.679579-17.024745 8.011464-21.10876 9.732665-4.241604 1.787716-7.677866 4.674463-10.128685 8.185426L578.456574 306.519092c-0.849344-3.066849-2.323928-6.012947-4.477988-8.629541-1.252527-1.521656-3.5345-4.210905-6.777357-7.900947-5.322216-6.055926-11.461029-12.780071-18.346857-20.006659-2.964518-3.110851-5.992481-6.218632-9.052167-9.324366 1.469468-0.998747 2.978844-2.015913 4.5312-3.053546C562.564629 245.418502 582.550823 233.224786 603.601254 221.866087zM273.063119 304.335357c-2.225691-1.238201-6.499018-3.817955-12.116969-7.561209-9.450233-6.296403-18.900465-13.420661-27.631314-21.152762-35.000142-30.993898-45.433772-58.057277-26.204825-82.161255 0.300852-0.3776 0.636496-0.75827 0.953721-1.136893 27.187199-21.762653 57.552787-29.628808 91.77317-25.461905 47.482431 5.782703 100.449783 34.407648 154.260339 78.775134 21.828145 17.997909 42.267663 37.33635 60.690244 56.668651 1.362021 1.428535 2.683109 2.830465 3.979638 4.212952L276.309046 306.518069C275.30416 305.715797 274.223548 304.982086 273.063119 304.335357zM113.702622 377.019773c0-13.100366 10.464329-23.593348 23.499204-23.593348l752.196571 0c12.941753 0 23.499204 10.574846 23.499204 23.593348l0 78.08031c0 6.303566-2.427282 11.999288-6.393617 16.217357-1.722224-0.401136-3.514033-0.620124-5.359055-0.620124L125.455293 470.697315c-1.825578 0-3.599991 0.214894-5.306866 0.607844-3.988848-4.229325-6.445806-9.931187-6.445806-16.205077L113.702622 377.019773zM196.004069 869.421412c-26.069749 0-47.043433-20.874423-47.043433-46.911426L148.960637 525.602809l728.676901 0 0 296.907177c0 25.993001-20.928658 46.911426-47.043433 46.911426L196.004069 869.421412z" p-id="16953"></path></svg>